<svg width="512" height="512" viewBox="0 0 512 512" fill="none" xmlns="http://www.w3.org/2000/svg">
<circle cx="256" cy="256" r="247" fill="white" stroke="#4F46E5" stroke-width="6"/>
<g clip-path="url(#clip0_1_2)">
<path d="M344.02 330.773C344.02 349.465 337.262 364.512 323.742 375.914C310.223 387.199 296.842 393.957 272.508 396.192V432.34H237.264V396.898C208.581 396.311 188.969 391.254 167.338 381.735V335.183C177.564 340.237 189.85 344.706 204.19 348.584C218.649 352.462 225.976 354.754 237.261 355.461V300.798L230.991 296.213C207.716 287.043 191.2 277.111 181.442 266.413C171.804 255.599 166.983 242.257 166.983 226.387C166.983 209.341 173.625 195.353 186.909 184.42C200.309 173.371 213.399 166.671 237.261 164.32V137.342H272.506V163.616C299.426 164.791 318.215 170.2 339.962 179.838L323.388 221.098C305.05 213.574 291.786 208.989 272.506 207.345V259.364C295.428 268.179 306.165 275.822 315.806 282.286C325.563 288.751 332.674 295.864 337.142 303.623C341.725 311.379 344.02 320.43 344.02 330.773M290.943 333.42C290.943 328.483 288.944 324.311 284.947 320.902C280.95 317.492 280.498 313.966 272.506 310.32V354.228C288.492 351.522 290.943 344.586 290.943 333.42M220.06 226.387C220.06 231.56 221.824 235.851 225.35 239.258C228.995 242.548 229.269 245.958 237.261 249.484V208.05C222.095 210.284 220.06 216.396 220.06 226.387" fill="#4F46E5"/>
<circle cx="255.5" cy="432" r="20.5" fill="white"/>
</g>
<path d="M255.575 79L298.508 137.755H212.642L255.575 79Z" fill="#4F46E5"/>
<defs>
<clipPath id="clip0_1_2">
<rect width="295" height="295" fill="white" transform="translate(108 137.34)"/>
</clipPath>
</defs>
</svg>
