<svg width="512" height="512" viewBox="0 0 512 512" fill="none" xmlns="http://www.w3.org/2000/svg">
<circle cx="256" cy="256" r="247" fill="#4F46E5" stroke="white" stroke-width="6"/>
<g clip-path="url(#clip0_2_13)">
<path d="M345.02 330.773C345.02 349.465 338.262 364.512 324.742 375.914C311.222 387.199 297.842 393.957 273.508 396.192V432.34H238.264V396.898C209.581 396.311 189.969 391.254 168.338 381.735V335.183C178.564 340.237 190.85 344.706 205.19 348.584C219.649 352.462 226.976 354.754 238.261 355.461V300.798L231.991 296.213C208.716 287.043 192.2 277.111 182.442 266.413C172.804 255.599 167.983 242.257 167.983 226.387C167.983 209.341 174.625 195.353 187.909 184.42C201.309 173.371 214.399 166.671 238.261 164.32V137.342H273.506V163.616C300.426 164.791 319.215 170.2 340.962 179.838L324.388 221.098C306.05 213.574 292.786 208.989 273.506 207.345V259.364C296.428 268.179 307.165 275.822 316.806 282.286C326.563 288.751 333.674 295.864 338.142 303.623C342.725 311.379 345.02 320.43 345.02 330.773M291.943 333.42C291.943 328.483 289.944 324.311 285.947 320.902C281.95 317.492 281.498 313.966 273.506 310.32V354.228C289.492 351.522 291.943 344.586 291.943 333.42M221.06 226.387C221.06 231.56 222.824 235.851 226.35 239.258C229.995 242.548 230.269 245.958 238.261 249.484V208.05C223.095 210.284 221.06 216.396 221.06 226.387" fill="white"/>
<circle cx="256.5" cy="432" r="20.5" fill="#4F46E5"/>
</g>
<path d="M256.575 79L299.508 137.755H213.642L256.575 79Z" fill="white"/>
<defs>
<clipPath id="clip0_2_13">
<rect width="295" height="295" fill="white" transform="translate(109 137.34)"/>
</clipPath>
</defs>
</svg>
